<svg width="28" height="28" viewBox="0 0 28 28" fill="none" xmlns="http://www.w3.org/2000/svg">
<path d="M14 2.33333C9.48504 2.33333 5.83337 5.985 5.83337 10.5C5.83337 16.625 14 25.6667 14 25.6667C14 25.6667 22.1667 16.625 22.1667 10.5C22.1667 5.985 18.515 2.33333 14 2.33333ZM14 13.4167C13.2265 13.4167 12.4846 13.1094 11.9376 12.5624C11.3907 12.0154 11.0834 11.2735 11.0834 10.5C11.0834 9.72645 11.3907 8.98458 11.9376 8.4376C12.4846 7.89062 13.2265 7.58333 14 7.58333C14.7736 7.58333 15.5155 7.89062 16.0624 8.4376C16.6094 8.98458 16.9167 9.72645 16.9167 10.5C16.9167 11.2735 16.6094 12.0154 16.0624 12.5624C15.5155 13.1094 14.7736 13.4167 14 13.4167Z" fill="#EC6C0F"/>
</svg>
